# xmcd
#
# Track frame offsets:
#	150
#	11435
#	22195
#	31655
#	44765
#	55245
#	65620
#	85430
#	96255
#	107848
#	119453
#	130780
#	142890
#	155578
#	165828
#	181190
#
# Disc length: 2554 seconds
#
# Revision: 1
# Processed by: cddbd v1.5.2PL0 Copyright (c) Steve Scherf et al.
# Submitted via: audiograbber 1.82.01
#
DISCID=d209f810
DTITLE=Various Artist - The Soul Of Detriot
DYEAR=1900
DGENRE=Soul
TTITLE0=Mack Rice - Baby I'm Coming Home
TTITLE1=The Conqueros - Since You've Been Gone
TTITLE2=The Rivals - Love me
TTITLE3=Charles Amos - Thunder In My Heart
TTITLE4=Gene Martin and The Primettes - Lonely Nights
TTITLE5=Eddie Floyd - Lonely
TTITLE6=Betty Lavette - You Killed The Love
TTITLE7=Benny McCain - I Don't Want No Part Time Love
TTITLE8=Joe Stubbs - Hey Hey
TTITLE9=The Majestics - Hard Times
TTITLE10=The Conqueros - Lovers Celebration
TTITLE11=Eddie Floyd - People Gonna Talk About You
TTITLE12=Don Revel and The Primettes - Return Of Stagger Lee
TTITLE13=Al Garner - I'll Get Along Without You
TTITLE14=Joe Stubbs - What's My Destiny
TTITLE15=Minor Chords - Let Her Go Now
EXTD=
EXTT0=
EXTT1=
EXTT2=
EXTT3=
EXTT4=
EXTT5=
EXTT6=
EXTT7=
EXTT8=
EXTT9=
EXTT10=
EXTT11=
EXTT12=
EXTT13=
EXTT14=
EXTT15=
PLAYORDER=
